
<svg version="1.0" xmlns="http://www.w3.org/2000/svg"
 width="25.000000pt" height="25.000000pt" viewBox="0 0 1280.000000 1059.000000"
 preserveAspectRatio="xMidYMid meet">

<g transform="translate(0.000000,1059.000000) scale(0.100000,-0.100000)"
fill="#000000" stroke="none">
<path d="M7830 10580 c-337 -10 -556 -21 -1320 -65 -878 -52 -1367 -91 -1580
-127 -98 -16 -234 -63 -293 -101 -110 -71 -184 -184 -194 -299 l-6 -58 41 0
c22 0 44 -5 47 -10 4 -6 -17 -39 -45 -73 -142 -169 -345 -429 -511 -653 -101
-137 -283 -382 -404 -544 -203 -272 -272 -373 -491 -720 -43 -69 -162 -242
-265 -385 -253 -354 -294 -417 -581 -884 -638 -1034 -717 -1175 -1148 -2031
-148 -294 -311 -612 -362 -707 -85 -157 -103 -182 -211 -300 -176 -194 -214
-248 -257 -372 -51 -144 -95 -352 -125 -589 -14 -108 -30 -221 -35 -251 -22
-120 -6 -171 54 -171 30 0 36 4 51 42 14 37 16 62 10 170 l-7 127 24 5 c177
36 296 75 543 178 410 171 548 207 793 208 l113 0 -3 -122 -3 -122 -72 -12
c-91 -16 -208 -47 -298 -81 -334 -124 -594 -381 -755 -744 l-33 -75 -36 18
c-29 15 -60 18 -183 18 l-148 0 -45 -61 c-43 -59 -75 -140 -90 -230 -4 -30 -1
-43 18 -65 74 -89 75 -174 4 -278 -31 -44 -35 -105 -13 -168 11 -30 87 -169
103 -187 2 -3 79 -8 171 -12 110 -4 179 -12 202 -21 22 -10 82 -65 160 -149
316 -341 454 -462 628 -548 275 -138 648 -146 944 -22 152 64 276 157 476 358
l183 183 57 0 c196 0 610 86 982 205 336 107 409 113 1100 91 544 -17 3237
-39 3625 -29 l220 6 69 -104 c107 -161 191 -264 311 -384 221 -219 449 -347
725 -406 139 -30 407 -33 550 -6 202 38 423 132 592 254 167 120 368 331 539
567 l84 115 477 1 476 0 46 51 c78 87 87 160 24 194 -50 27 -54 41 -19 81 49
55 53 152 9 254 -34 80 -50 90 -142 90 -45 0 -97 5 -117 10 l-35 10 -18 92
c-113 598 -371 1241 -737 1834 -69 111 -79 134 -58 134 19 0 39 68 39 133 0
36 9 131 20 213 31 229 50 410 50 479 0 50 -3 64 -17 70 -10 4 -411 10 -891
13 l-872 5 5 -29 c20 -118 61 -601 52 -611 -13 -12 -68 21 -112 68 l-46 49 20
38 c35 68 51 185 61 431 11 250 21 331 49 396 l18 40 119 -6 c65 -4 178 -10
250 -14 l132 -8 16 69 c8 39 27 157 41 264 14 107 33 242 42 300 28 181 28
207 3 220 -11 6 -31 10 -43 8 -18 -2 -22 -10 -25 -43 -6 -93 1 -89 -120 -82
-114 6 -247 28 -326 54 -46 15 -48 17 -43 47 3 17 15 122 28 233 18 156 27
204 39 210 8 3 158 8 333 11 l317 4 11 -31 11 -31 369 0 369 0 0 179 0 179
-96 7 c-111 9 -262 2 -604 -26 -283 -23 -539 -27 -658 -9 l-82 12 5 32 c11 62
66 532 125 1071 111 1008 197 1731 226 1893 l6 32 144 0 144 0 0 98 c0 174
-29 523 -47 572 -48 131 -174 238 -337 285 -165 48 -159 48 -1241 50 -561 1
-1144 -1 -1295 -5z m360 -634 c311 -35 469 -66 955 -186 363 -89 525 -123 704
-148 l124 -17 30 -40 c41 -56 93 -168 114 -245 25 -97 21 -255 -16 -565 -18
-148 -66 -551 -107 -895 -41 -344 -95 -802 -119 -1019 -25 -217 -47 -396 -49
-398 -2 -2 -34 1 -71 8 -37 6 -111 9 -164 7 -148 -7 -242 -57 -320 -168 -82
-117 -114 -223 -181 -612 -27 -157 -54 -298 -60 -312 -9 -26 -11 -26 -109 -26
-69 0 -172 12 -340 40 -400 67 -543 73 -627 27 -87 -49 -109 -175 -48 -274 41
-66 135 -113 309 -154 320 -75 423 -118 663 -274 l132 -87 0 -87 c1 -283 163
-430 478 -431 l82 0 0 -52 c0 -48 -11 -141 -25 -224 -5 -30 -8 -32 -88 -47
-101 -20 -189 -32 -377 -52 -80 -9 -267 -41 -415 -71 -444 -89 -540 -91 -970
-24 -504 79 -1087 135 -1335 127 -164 -5 -220 -19 -275 -72 -33 -31 -35 -36
-35 -102 0 -87 13 -157 55 -306 19 -65 39 -153 45 -196 15 -102 3 -152 -83
-331 -36 -74 -90 -198 -122 -275 -174 -427 -310 -722 -407 -886 -32 -55 -45
-68 -71 -73 -65 -13 -1318 -27 -1422 -15 -172 18 -229 49 -409 216 -48 46
-112 98 -141 116 -34 20 -56 41 -60 57 -11 43 -55 149 -148 355 -95 212 -145
337 -170 422 l-16 53 28 0 c18 0 60 -21 112 -55 46 -30 89 -55 96 -55 7 0 17
18 23 41 26 94 -30 153 -249 264 -84 42 -155 83 -158 91 -10 27 370 639 1011
1629 284 439 579 900 779 1217 54 84 56 87 101 93 110 17 205 -25 455 -200
185 -130 252 -169 329 -191 99 -29 152 13 152 121 0 25 -7 59 -15 74 -27 53
-121 126 -271 211 -82 46 -219 127 -304 180 -85 53 -295 180 -465 282 -171
102 -413 249 -538 326 -297 184 -386 214 -446 154 -39 -38 -47 -100 -22 -157
28 -64 96 -111 410 -285 l281 -155 0 -34 c0 -18 12 -59 26 -91 22 -50 24 -61
13 -81 -21 -40 -225 -358 -436 -679 -312 -477 -543 -840 -600 -944 -10 -19
-11 -19 -17 2 -10 30 -10 141 -2 248 l8 91 -109 17 c-314 48 -515 56 -1161 49
-292 -3 -541 -2 -559 3 l-32 9 75 140 c703 1304 1493 2548 2350 3703 257 346
755 978 909 1155 l40 46 275 10 c151 6 583 12 960 12 377 1 789 5 915 9 371
12 957 5 1125 -14z"/>
</g>
</svg>
