<?xml version="1.0" encoding="UTF-8"?><svg id="Layer_1" xmlns="http://www.w3.org/2000/svg" width="96.79" height="270.41" viewBox="0 0 96.79 270.41"><defs><style>.cls-1{fill:none;stroke:#000;stroke-miterlimit:10;}</style></defs><polygon class="cls-1" points="67.89 183.85 73.82 186.97 76.65 191.2 85.37 191.13 84.37 183.48 82.56 182.08 79.6 183.58 71.61 182.51 67.89 183.85"/><path class="cls-1" d="M14.59,62.61l4.6,66.04L.74,142.45l4.78,5.37,13.88-10.58,1.75,28-11.09,3.17,11.52,8.81,.1,21.61,13.41-.03,9.41,12.96,2.86,.8-.15,2.21-2.74,.89,3.7,10.05,1.54-.5,6.34,44.69,33.72-.15,6.51-252.77L92.24,.56l-22.8,3.09-7.04,.99,.18,11.2-3.54,3.75s-1.93,15.35,12.28,29.77l11.83,1.78-2.28,75.85,.79,3.42-.18,7.42,2.05,4.96-.54,2.34-3.39,.24-.81-9.04-2.89-1.01,1.84-2.33-2.39-11.34-1.04-17.84-1.75-10.69-6.63-1.74,.16-3.51,4.31-1.4s-9.4-14.26-6.12-17.49-2.75-15.12-2.75-15.12c0,0,4.72-4.13,2-7.15s-6.83-10.33-6.83-10.33l-3.52,1.15s-1.52,.64-2.71-1S14.59,62.61,14.59,62.61Z"/></svg>